<svg xmlns="http://www.w3.org/2000/svg" xmlns:xlink="http://www.w3.org/1999/xlink" width="1920" zoomAndPan="magnify" viewBox="0 0 1440 809.999993" height="1080" preserveAspectRatio="xMidYMid meet" version="1.0"><defs><clipPath id="18a42b90fe"><path d="M 233.949219 758.902344 L 299.53125 758.902344 L 299.53125 809.667969 L 233.949219 809.667969 Z M 233.949219 758.902344 " clip-rule="nonzero"/></clipPath><clipPath id="84eb360796"><path d="M 284.058594 793.09375 C 284.058594 791.734375 283.613281 790.664062 282.734375 789.90625 C 281.855469 789.148438 280.125 788.761719 277.535156 788.761719 L 249.335938 788.761719 L 249.335938 798.011719 L 277.308594 798.011719 C 279.078125 798.011719 280.640625 797.820312 282.011719 797.449219 C 283.382812 797.074219 284.058594 795.621094 284.058594 793.09375 M 282.011719 774.214844 C 282.011719 772.496094 281.519531 771.363281 280.53125 770.800781 C 279.546875 770.234375 278.101562 769.96875 276.175781 769.96875 L 249.335938 769.96875 L 249.335938 778.765625 L 275.875 778.765625 C 277.898438 778.765625 279.425781 778.488281 280.460938 777.933594 C 281.496094 777.378906 282.011719 776.140625 282.011719 774.214844 M 281.941406 758.902344 C 286.992188 758.902344 290.855469 759.863281 293.539062 761.789062 C 296.222656 763.714844 297.554688 767.09375 297.554688 771.941406 C 297.554688 774.058594 297.363281 775.875 296.992188 777.367188 C 296.617188 778.859375 295.933594 780.039062 294.945312 780.894531 C 293.957031 781.746094 293.042969 782.335938 292.214844 782.636719 C 291.382812 782.9375 290.207031 783.300781 288.6875 783.695312 C 292.78125 784.359375 295.621094 785.394531 297.183594 786.8125 C 298.746094 788.230469 299.527344 790.925781 299.527344 794.921875 C 299.527344 800.527344 298.183594 804.367188 295.476562 806.410156 C 292.769531 808.457031 288.507812 809.480469 282.699219 809.480469 L 233.949219 809.480469 L 233.949219 758.902344 Z M 281.941406 758.902344 " clip-rule="nonzero"/></clipPath><clipPath id="ebbcc7986d"><path d="M 327.960938 758.902344 L 384.363281 758.902344 L 384.363281 770.425781 L 327.960938 770.425781 Z M 327.960938 770.425781 L 343.347656 770.425781 L 343.347656 779.078125 L 327.960938 779.078125 Z M 327.960938 779.078125 L 381.644531 779.078125 L 381.644531 789.085938 L 327.960938 789.085938 Z M 327.960938 789.085938 L 343.347656 789.085938 L 343.347656 798.039062 L 327.960938 798.039062 Z M 327.960938 798.039062 L 384.363281 798.039062 L 384.363281 809.492188 L 327.960938 809.492188 Z M 327.960938 798.039062 " clip-rule="nonzero"/></clipPath><clipPath id="978c4dbe76"><path d="M 408.304688 758.902344 L 484.949219 758.902344 L 484.949219 809.46875 L 408.304688 809.46875 Z M 408.304688 758.902344 " clip-rule="nonzero"/></clipPath><clipPath id="8dc4553ed3"><path d="M 435.710938 789.832031 L 457.773438 789.832031 L 446.839844 768.597656 Z M 425.277344 809.46875 L 408.304688 809.46875 L 436.492188 758.902344 L 457.269531 758.902344 L 484.84375 809.46875 L 467.917969 809.46875 L 463.152344 800.289062 L 430.234375 800.289062 Z M 425.277344 809.46875 " clip-rule="nonzero"/></clipPath><clipPath id="acc53da0d5"><path d="M 503.515625 758.445312 L 568.359375 758.445312 L 568.359375 810 L 503.515625 810 Z M 503.515625 758.445312 " clip-rule="nonzero"/></clipPath><clipPath id="913fed3d83"><path d="M 568.183594 792.410156 C 568.183594 799.386719 566.90625 804.019531 564.355469 806.316406 C 561.804688 808.613281 556.765625 809.769531 549.234375 809.769531 L 537.480469 810 L 527.925781 809.84375 C 517.761719 809.84375 511.226562 808.519531 508.328125 805.859375 C 505.429688 803.203125 503.972656 799.085938 503.972656 793.46875 L 503.515625 782.855469 C 503.515625 774.566406 504.730469 768.492188 507.148438 764.628906 C 509.566406 760.769531 514.535156 758.832031 522.019531 758.832031 L 536.421875 758.445312 C 540.621094 758.445312 544.074219 758.480469 546.804688 758.554688 C 549.535156 758.625 552.84375 758.867188 556.742188 759.277344 C 560.640625 759.683594 563.417969 761.382812 565.078125 764.390625 C 566.738281 767.398438 567.582031 771.5 567.582031 776.707031 L 552.636719 776.707031 C 552.636719 774.410156 552.074219 772.882812 550.929688 772.113281 C 549.789062 771.34375 547.984375 770.957031 545.503906 770.957031 L 541.183594 770.886719 L 536.949219 770.886719 L 529.140625 770.957031 C 524.484375 770.957031 521.644531 771.8125 520.613281 773.519531 C 519.578125 775.230469 519.058594 778.777344 519.058594 784.144531 C 519.058594 789.679688 519.660156 793.261719 520.875 794.925781 C 522.089844 796.585938 525.328125 797.414062 530.585938 797.414062 L 536.578125 797.570312 L 544.457031 797.5 C 547.539062 797.5 549.738281 797.078125 551.050781 796.222656 C 552.363281 795.367188 553.023438 793.371094 553.023438 790.21875 L 568.109375 790.21875 Z M 568.183594 792.410156 " clip-rule="nonzero"/></clipPath><clipPath id="e8b75b2f7f"><path d="M 229.734375 370.386719 L 691 370.386719 L 691 700.59375 L 229.734375 700.59375 Z M 229.734375 370.386719 " clip-rule="nonzero"/></clipPath><clipPath id="4d22f65a47"><path d="M 582.75 370.386719 L 582.75 573.605469 L 365.515625 370.386719 L 229.734375 370.386719 L 229.734375 700.59375 L 337.953125 700.59375 L 337.953125 495.425781 L 558.890625 700.59375 L 690.980469 700.59375 L 690.980469 370.386719 Z M 582.75 370.386719 " clip-rule="nonzero"/></clipPath><clipPath id="fc1e4bd5fb"><path d="M 229.734375 6.019531 L 692.953125 6.019531 L 692.953125 337 L 229.734375 337 Z M 229.734375 6.019531 " clip-rule="nonzero"/></clipPath><clipPath id="ef1c9fab46"><path d="M 229.734375 6.019531 L 229.734375 96.289062 L 507.015625 96.289062 L 229.734375 230.902344 L 229.734375 336.210938 L 692.953125 336.210938 L 692.953125 245.941406 L 426.671875 245.941406 L 692.953125 112.121094 L 692.953125 6.019531 Z M 229.734375 6.019531 " clip-rule="nonzero"/></clipPath><clipPath id="0eff313e24"><path d="M 647.453125 758.902344 L 662.925781 758.902344 L 662.925781 777.402344 L 647.453125 777.402344 Z M 597.1875 758.902344 L 612.574219 758.902344 L 612.574219 777.402344 L 597.1875 777.402344 Z M 597.1875 777.402344 L 662.925781 777.402344 L 662.925781 789.988281 L 597.1875 789.988281 Z M 647.453125 789.988281 L 662.925781 789.988281 L 662.925781 809.46875 L 647.453125 809.46875 Z M 597.1875 789.988281 L 612.574219 789.988281 L 612.574219 809.480469 L 597.1875 809.480469 Z M 597.1875 789.988281 " clip-rule="nonzero"/></clipPath><clipPath id="10c910b482"><path d="M 720.9375 758.902344 L 781.441406 758.902344 L 781.441406 771.570312 L 720.9375 771.570312 Z M 743.53125 771.570312 L 758.917969 771.570312 L 758.917969 809.46875 L 743.53125 809.46875 Z M 743.53125 771.570312 " clip-rule="nonzero"/></clipPath><clipPath id="3bb2d2e674"><path d="M 810.09375 758.902344 L 866.496094 758.902344 L 866.496094 770.425781 L 810.09375 770.425781 Z M 810.09375 770.425781 L 825.484375 770.425781 L 825.484375 779.078125 L 810.09375 779.078125 Z M 810.09375 779.078125 L 863.777344 779.078125 L 863.777344 789.085938 L 810.09375 789.085938 Z M 810.09375 789.085938 L 825.484375 789.085938 L 825.484375 798.039062 L 810.09375 798.039062 Z M 810.09375 798.039062 L 866.496094 798.039062 L 866.496094 809.492188 L 810.09375 809.492188 Z M 810.09375 798.039062 " clip-rule="nonzero"/></clipPath><clipPath id="32ba9aa07c"><path d="M 891.449219 758.902344 L 960.980469 758.902344 L 960.980469 809.46875 L 891.449219 809.46875 Z M 891.449219 758.902344 " clip-rule="nonzero"/></clipPath><clipPath id="4817cfe43c"><path d="M 936.359375 809.46875 L 905.933594 771.484375 L 905.933594 809.46875 L 891.449219 809.46875 L 891.449219 758.902344 L 915.957031 758.902344 L 946.417969 796.808594 L 946.417969 758.902344 L 960.890625 758.902344 L 960.890625 809.46875 Z M 936.359375 809.46875 " clip-rule="nonzero"/></clipPath><clipPath id="a30fe53a4b"><path d="M 991.636719 758.902344 L 1061.171875 758.902344 L 1061.171875 809.46875 L 991.636719 809.46875 Z M 991.636719 758.902344 " clip-rule="nonzero"/></clipPath><clipPath id="8bf8f45414"><path d="M 1036.550781 809.46875 L 1006.125 771.484375 L 1006.125 809.46875 L 991.636719 809.46875 L 991.636719 758.902344 L 1016.144531 758.902344 L 1046.609375 796.808594 L 1046.609375 758.902344 L 1061.082031 758.902344 L 1061.082031 809.46875 Z M 1036.550781 809.46875 " clip-rule="nonzero"/></clipPath><clipPath id="cbacf3b98e"><path d="M 1087.925781 758.902344 L 1103.3125 758.902344 L 1103.3125 809.46875 L 1087.925781 809.46875 Z M 1087.925781 758.902344 " clip-rule="nonzero"/></clipPath><clipPath id="2bdd94f9f0"><path d="M 737.191406 370.339844 L 1204 370.339844 L 1204 701 L 737.191406 701 Z M 737.191406 370.339844 " clip-rule="nonzero"/></clipPath><clipPath id="512f289dec"><path d="M 1004.75 608.699219 L 846.15625 608.699219 L 846.15625 463.425781 L 1000.203125 463.425781 C 1000.203125 463.425781 1093.058594 460.152344 1093.058594 536.054688 C 1093.058594 536.054688 1092.503906 608.699219 1004.738281 608.699219 M 1027.886719 370.390625 L 737.191406 370.390625 L 737.191406 700.59375 L 1036.4375 700.59375 C 1202.035156 700.59375 1203.105469 535.492188 1203.105469 535.492188 C 1203.09375 362.929688 1027.886719 370.390625 1027.886719 370.390625 " clip-rule="nonzero"/></clipPath><clipPath id="2e5329700a"><path d="M 740.976562 96.019531 L 973 96.019531 L 973 337 L 740.976562 337 Z M 740.976562 96.019531 " clip-rule="nonzero"/></clipPath><clipPath id="afc21e5549"><path d="M 812.636719 174.726562 L 972.625 96.117188 L 863.671875 336.21875 L 740.992188 336.21875 Z M 812.636719 174.726562 " clip-rule="nonzero"/></clipPath><clipPath id="60df8c824a"><path d="M 847 6 L 1204.265625 6 L 1204.265625 337 L 847 337 Z M 847 6 " clip-rule="nonzero"/></clipPath><clipPath id="ffd2a2e3d2"><path d="M 1204.246094 336.21875 L 1075.828125 336.21875 L 972.625 96.117188 L 847.511719 96.117188 L 887.492188 6.015625 L 1057.757812 6.015625 Z M 1204.246094 336.21875 " clip-rule="nonzero"/></clipPath><clipPath id="509b67f848"><path d="M 1132.542969 758.167969 L 1196 758.167969 L 1196 809.925781 L 1132.542969 809.925781 Z M 1132.542969 758.167969 " clip-rule="nonzero"/></clipPath><clipPath id="bc898eb1b6"><path d="M 1148.160156 794.148438 C 1148.160156 796.21875 1148.859375 797.519531 1150.242188 798.046875 C 1151.625 798.578125 1153.5625 798.84375 1156.042969 798.84375 L 1163.320312 798.914062 L 1173.628906 798.613281 C 1176.457031 798.613281 1178.3125 798.265625 1179.164062 797.554688 C 1180.019531 796.84375 1180.453125 795.738281 1180.453125 794.222656 C 1180.453125 792.863281 1179.960938 791.769531 1178.972656 790.960938 C 1177.984375 790.15625 1176.097656 789.746094 1173.328125 789.746094 L 1170.828125 789.746094 L 1145.503906 789.21875 C 1140.75 789.21875 1137.40625 788.015625 1135.457031 785.621094 C 1133.507812 783.226562 1132.542969 779.542969 1132.542969 774.601562 C 1132.542969 770.402344 1133.15625 767.140625 1134.398438 764.820312 C 1135.636719 762.496094 1137.886719 760.910156 1141.148438 760.078125 C 1144.40625 759.25 1148.679688 758.753906 1153.960938 758.597656 C 1159.242188 758.441406 1162.789062 758.371094 1164.605469 758.371094 L 1175.375 758.527344 C 1179.671875 758.527344 1183.136719 758.863281 1185.757812 759.550781 C 1188.378906 760.234375 1190.246094 761.484375 1191.328125 763.300781 C 1192.410156 765.121094 1193.109375 766.769531 1193.410156 768.234375 C 1193.710938 769.703125 1193.867188 771.722656 1193.867188 774.300781 L 1178.792969 774.300781 C 1178.792969 772.53125 1178.273438 771.292969 1177.238281 770.582031 C 1176.207031 769.871094 1174.75 769.523438 1172.882812 769.523438 L 1165.449219 769.4375 L 1153.695312 769.8125 C 1152.132812 769.8125 1150.796875 770.101562 1149.714844 770.691406 C 1148.628906 771.277344 1148.089844 772.242188 1148.089844 773.613281 C 1148.089844 775.488281 1148.738281 776.707031 1150.027344 777.292969 C 1151.3125 777.882812 1153.070312 778.160156 1155.296875 778.160156 L 1156.882812 778.160156 L 1167.195312 778.316406 L 1177.347656 778.390625 C 1183.867188 778.390625 1188.609375 779.414062 1191.570312 781.457031 C 1194.527344 783.503906 1196.007812 787.617188 1196.007812 793.777344 C 1196.007812 799.746094 1194.683594 803.835938 1192.027344 806.0625 C 1189.367188 808.285156 1184.988281 809.394531 1178.875 809.394531 L 1159.167969 809.921875 L 1148.859375 809.695312 C 1143.398438 809.695312 1139.378906 808.804688 1136.804688 807.035156 C 1134.230469 805.265625 1132.917969 801.71875 1132.917969 796.351562 L 1132.917969 793.320312 L 1148.078125 793.320312 Z M 1148.160156 794.148438 " clip-rule="nonzero"/></clipPath></defs><rect x="-144" width="1728" fill="#ffffff" y="-80.999999" height="971.999992" fill-opacity="1"/><g clip-path="url(#18a42b90fe)"><g clip-path="url(#84eb360796)"><path fill="#090f10" d="M 233.949219 758.902344 L 299.53125 758.902344 L 299.53125 809.46875 L 233.949219 809.46875 Z M 233.949219 758.902344 " fill-opacity="1" fill-rule="nonzero"/></g></g><g clip-path="url(#ebbcc7986d)"><path fill="#090f10" d="M 327.960938 758.902344 L 384.457031 758.902344 L 384.457031 809.46875 L 327.960938 809.46875 Z M 327.960938 758.902344 " fill-opacity="1" fill-rule="nonzero"/></g><g clip-path="url(#978c4dbe76)"><g clip-path="url(#8dc4553ed3)"><path fill="#090f10" d="M 408.304688 758.902344 L 484.75 758.902344 L 484.75 809.46875 L 408.304688 809.46875 Z M 408.304688 758.902344 " fill-opacity="1" fill-rule="nonzero"/></g></g><g clip-path="url(#acc53da0d5)"><g clip-path="url(#913fed3d83)"><path fill="#090f10" d="M 503.515625 758.445312 L 568.160156 758.445312 L 568.160156 810 L 503.515625 810 Z M 503.515625 758.445312 " fill-opacity="1" fill-rule="nonzero"/></g></g><g clip-path="url(#e8b75b2f7f)"><g clip-path="url(#4d22f65a47)"><path fill="#090f10" d="M 229.734375 370.386719 L 690.820312 370.386719 L 690.820312 700.59375 L 229.734375 700.59375 Z M 229.734375 370.386719 " fill-opacity="1" fill-rule="nonzero"/></g></g><g clip-path="url(#fc1e4bd5fb)"><g clip-path="url(#ef1c9fab46)"><path fill="#090f10" d="M 229.734375 6.019531 L 692.953125 6.019531 L 692.953125 336.03125 L 229.734375 336.03125 Z M 229.734375 6.019531 " fill-opacity="1" fill-rule="nonzero"/></g></g><g clip-path="url(#0eff313e24)"><path fill="#090f10" d="M 597.1875 758.902344 L 662.96875 758.902344 L 662.96875 809.46875 L 597.1875 809.46875 Z M 597.1875 758.902344 " fill-opacity="1" fill-rule="nonzero"/></g><g clip-path="url(#10c910b482)"><path fill="#090f10" d="M 720.9375 758.902344 L 781.382812 758.902344 L 781.382812 809.46875 L 720.9375 809.46875 Z M 720.9375 758.902344 " fill-opacity="1" fill-rule="nonzero"/></g><g clip-path="url(#3bb2d2e674)"><path fill="#090f10" d="M 810.09375 758.902344 L 866.59375 758.902344 L 866.59375 809.46875 L 810.09375 809.46875 Z M 810.09375 758.902344 " fill-opacity="1" fill-rule="nonzero"/></g><g clip-path="url(#32ba9aa07c)"><g clip-path="url(#4817cfe43c)"><path fill="#090f10" d="M 891.449219 758.902344 L 960.980469 758.902344 L 960.980469 809.46875 L 891.449219 809.46875 Z M 891.449219 758.902344 " fill-opacity="1" fill-rule="nonzero"/></g></g><g clip-path="url(#a30fe53a4b)"><g clip-path="url(#8bf8f45414)"><path fill="#090f10" d="M 991.636719 758.902344 L 1061.171875 758.902344 L 1061.171875 809.46875 L 991.636719 809.46875 Z M 991.636719 758.902344 " fill-opacity="1" fill-rule="nonzero"/></g></g><g clip-path="url(#cbacf3b98e)"><path fill="#090f10" d="M 1087.925781 758.902344 L 1103.316406 758.902344 L 1103.316406 809.464844 L 1087.925781 809.464844 Z M 1087.925781 758.902344 " fill-opacity="1" fill-rule="nonzero"/></g><g clip-path="url(#2bdd94f9f0)"><g clip-path="url(#512f289dec)"><path fill="#090f10" d="M 737.191406 370.339844 L 1203.097656 370.339844 L 1203.097656 700.558594 L 737.191406 700.558594 Z M 737.191406 370.339844 " fill-opacity="1" fill-rule="nonzero"/></g></g><g clip-path="url(#2e5329700a)"><g clip-path="url(#afc21e5549)"><path fill="#39b54a" d="M 734.976562 0 L 1210.265625 0 L 1210.265625 342.066406 L 734.976562 342.066406 Z M 734.976562 0 " fill-opacity="1" fill-rule="nonzero"/></g></g><g clip-path="url(#60df8c824a)"><g clip-path="url(#ffd2a2e3d2)"><path fill="#090f10" d="M 734.976562 0 L 1210.265625 0 L 1210.265625 342.066406 L 734.976562 342.066406 Z M 734.976562 0 " fill-opacity="1" fill-rule="nonzero"/></g></g><g clip-path="url(#509b67f848)"><g clip-path="url(#bc898eb1b6)"><path fill="#090f10" d="M 1132.542969 758.371094 L 1195.980469 758.371094 L 1195.980469 809.925781 L 1132.542969 809.925781 Z M 1132.542969 758.371094 " fill-opacity="1" fill-rule="nonzero"/></g></g></svg>