<svg xmlns="http://www.w3.org/2000/svg" viewBox="229 6 975 694" width="260" height="185">
  <defs>
    <clipPath id="zl_fc"><path d="M 229.734375 6.019531 L 692.953125 6.019531 L 692.953125 337 L 229.734375 337 Z" clip-rule="nonzero"/></clipPath>
    <clipPath id="zl_ef"><path d="M 229.734375 6.019531 L 229.734375 96.289062 L 507.015625 96.289062 L 229.734375 230.902344 L 229.734375 336.210938 L 692.953125 336.210938 L 692.953125 245.941406 L 426.671875 245.941406 L 692.953125 112.121094 L 692.953125 6.019531 Z" clip-rule="nonzero"/></clipPath>
    <clipPath id="zl_e8"><path d="M 229.734375 370.386719 L 691 370.386719 L 691 700.59375 L 229.734375 700.59375 Z" clip-rule="nonzero"/></clipPath>
    <clipPath id="zl_4d"><path d="M 582.75 370.386719 L 582.75 573.605469 L 365.515625 370.386719 L 229.734375 370.386719 L 229.734375 700.59375 L 337.953125 700.59375 L 337.953125 495.425781 L 558.890625 700.59375 L 690.980469 700.59375 L 690.980469 370.386719 Z" clip-rule="nonzero"/></clipPath>
    <clipPath id="zl_2e"><path d="M 740.976562 96.019531 L 973 96.019531 L 973 337 L 740.976562 337 Z" clip-rule="nonzero"/></clipPath>
    <clipPath id="zl_af"><path d="M 812.636719 174.726562 L 972.625 96.117188 L 863.671875 336.21875 L 740.992188 336.21875 Z" clip-rule="nonzero"/></clipPath>
    <clipPath id="zl_60"><path d="M 847 6 L 1204.265625 6 L 1204.265625 337 L 847 337 Z" clip-rule="nonzero"/></clipPath>
    <clipPath id="zl_ff"><path d="M 1204.246094 336.21875 L 1075.828125 336.21875 L 972.625 96.117188 L 847.511719 96.117188 L 887.492188 6.015625 L 1057.757812 6.015625 Z" clip-rule="nonzero"/></clipPath>
    <clipPath id="zl_2b"><path d="M 737.191406 370.339844 L 1204 370.339844 L 1204 701 L 737.191406 701 Z" clip-rule="nonzero"/></clipPath>
    <clipPath id="zl_51"><path d="M 1004.75 608.699219 L 846.15625 608.699219 L 846.15625 463.425781 L 1000.203125 463.425781 C 1000.203125 463.425781 1093.058594 460.152344 1093.058594 536.054688 C 1093.058594 536.054688 1092.503906 608.699219 1004.738281 608.699219 M 1027.886719 370.390625 L 737.191406 370.390625 L 737.191406 700.59375 L 1036.4375 700.59375 C 1202.035156 700.59375 1203.105469 535.492188 1203.105469 535.492188 C 1203.09375 362.929688 1027.886719 370.390625 1027.886719 370.390625" clip-rule="nonzero"/></clipPath>
  </defs>
  <!-- Z -->
  <g clip-path="url(#zl_fc)"><g clip-path="url(#zl_ef)"><path fill="#090f10" d="M 229.734375 6.019531 L 692.953125 6.019531 L 692.953125 336.03125 L 229.734375 336.03125 Z"/></g></g>
  <!-- N -->
  <g clip-path="url(#zl_e8)"><g clip-path="url(#zl_4d)"><path fill="#090f10" d="M 229.734375 370.386719 L 690.820312 370.386719 L 690.820312 700.59375 L 229.734375 700.59375 Z"/></g></g>
  <!-- A green fill -->
  <g clip-path="url(#zl_2e)"><g clip-path="url(#zl_af)"><path fill="#39b54a" d="M 734.976562 0 L 1210.265625 0 L 1210.265625 342.066406 L 734.976562 342.066406 Z"/></g></g>
  <!-- A black outer -->
  <g clip-path="url(#zl_60)"><g clip-path="url(#zl_ff)"><path fill="#090f10" d="M 734.976562 0 L 1210.265625 0 L 1210.265625 342.066406 L 734.976562 342.066406 Z"/></g></g>
  <!-- D -->
  <g clip-path="url(#zl_2b)"><g clip-path="url(#zl_51)"><path fill="#090f10" d="M 737.191406 370.339844 L 1203.097656 370.339844 L 1203.097656 700.558594 L 737.191406 700.558594 Z"/></g></g>
</svg>
